<svg viewBox="-27 -2 504 462" xmlns="http://www.w3.org/2000/svg">
    <rect x="0" y="0" width="450" height="450" fill="#d9dbff" />

    <g fill="#ffffff">
        <!-- Row1 -->
        <rect x="50" y="0" width="50" height="50" />
        <rect x="150" y="0" width="50" height="50" />
        <rect x="250" y="0" width="50" height="50" />
        <rect x="350" y="0" width="50" height="50" />
        
        <!-- Row2 -->
        <rect x="0" y="50" width="50" height="50" />
        <rect x="100" y="50" width="50" height="50" />
        <rect x="200" y="50" width="50" height="50" />
        <rect x="300" y="50" width="50" height="50" />
        <rect x="400" y="50" width="50" height="50" />
        
        <!-- Row3 -->
        <rect x="50" y="100" width="50" height="50" />
        <rect x="150" y="100" width="50" height="50" />
        <rect x="250" y="100" width="50" height="50" />
        <rect x="350" y="100" width="50" height="50" />

        <!-- Row4 -->
        <rect x="0" y="150" width="50" height="50" />
        <rect x="100" y="150" width="50" height="50" />
        <rect x="200" y="150" width="50" height="50" />
        <rect x="300" y="150" width="50" height="50" />
        <rect x="400" y="150" width="50" height="50" />

        <!-- Row5 -->
        <rect x="50" y="200" width="50" height="50" />
        <rect x="150" y="200" width="50" height="50" />
        <rect x="250" y="200" width="50" height="50" />
        <rect x="350" y="200" width="50" height="50" />

        <!-- Row6 -->
        <rect x="100" y="250" width="50" height="50" />
        <rect x="200" y="250" width="50" height="50" />
        <rect x="300" y="250" width="50" height="50" />

        <!-- Row7 -->
        <rect x="150" y="300" width="50" height="50" />
        <rect x="250" y="300" width="50" height="50" />

        <!-- Row8 -->
        <rect x="200" y="350" width="50" height="50" />

    </g>
    <g fill="#3c3c3c">
        <rect x="0" y="0" width="50" height="50" />
        <rect x="400" y="0" width="50" height="50" />
        <path d="M150,0 150,50 200,50 200,100 250,100 250,50 300,50 300,0 z" />
        <path d="M0,450 0,250 50,250 50,300 100,300 100,350 150,350 150,400 200,400 200,450 z" />
        <path d="M450,450 450,250 400,250 400,300 350,300 350,350 300,350 300,400 250,400 250,450 z" />
    </g>

    <rect id="border" width="450" height="450" fill="none" />
    <rect id="solid" x="0" y="450" width="450" height="8" fill="#d9dbff" />
</svg>